<?xml version="1.0" encoding="utf-8" ?><svg xmlns="http://www.w3.org/2000/svg" xmlns:xlink="http://www.w3.org/1999/xlink" width="417" height="339" viewBox="0 0 417 339"><path fill="white" d="M318.397 201.592L247.65 201.545L283.085 120.677L318.397 201.592ZM18.6873 201.393L18.7344 122.196L50.1187 122.217Q57.9914 122.222 63.703 125.31Q70.2833 128.842 74.1498 135.4Q78.0424 141.931 78.0378 149.764Q78.0332 157.626 74.1855 164.234Q70.364 170.815 63.7791 174.339Q58.1691 177.419 50.0859 177.413L38.3434 177.406L38.3292 201.407L18.6873 201.393ZM156.218 181.345L156.206 201.484L99.0453 201.446L99.0923 122.25L103.068 122.252L103.033 181.31L156.218 181.345ZM333.616 201.491L333.662 122.294L337.849 122.297L390.242 176.139L390.272 122.332L394.243 122.334L394.2 201.531L333.616 201.491ZM253.919 197.327L312.132 197.365L283.079 130.678L253.919 197.327Z"/><path fill="white" d="M282.455 260.577Q289.674 260.582 289.671 266.441Q289.669 269.078 286.614 271.126Q283.558 273.175 275.784 273.169L139.595 273.079L212.18 76.4197L176.779 76.3959Q166.228 76.3893 161.924 77.4116Q156.509 78.5795 154.287 78.5782Q147.068 78.5736 147.072 72.7149Q147.073 71.3165 147.634 70.2025Q149.839 65.8326 160.681 65.8399L284.653 65.9217L213.874 262.436L260.103 262.467Q270.515 262.474 274.68 261.597Q279.54 260.576 282.455 260.577Z"/><path fill="white" d="M336.548 264.323Q336.548 265.777 335.998 266.995Q335.447 268.214 334.486 269.081Q333.525 269.948 332.236 270.429Q330.947 270.909 329.494 270.909L328.298 270.909Q326.845 270.909 325.556 270.429Q324.267 269.948 323.306 269.081Q322.345 268.214 321.795 266.995Q321.244 265.777 321.244 264.323L321.244 264.23Q321.244 262.823 321.759 261.652Q322.275 260.48 323.166 259.612Q322.041 258.933 321.373 257.773Q320.705 256.612 320.705 255.206Q320.705 253.941 321.244 252.851Q321.783 251.761 322.72 251.081Q321.595 250.097 320.939 248.714Q320.283 247.331 320.283 245.691L320.283 243.886Q320.283 242.433 320.834 241.144Q321.384 239.855 322.345 238.894Q323.306 237.933 324.595 237.382Q325.884 236.831 327.337 236.831L328.533 236.831Q330.291 236.831 331.779 237.616Q333.267 238.402 334.252 239.738L335.822 237.3L336.783 237.3L336.783 245.691Q336.783 247.144 336.232 248.433Q335.681 249.722 334.72 250.683Q333.759 251.644 332.47 252.195Q331.181 252.745 329.728 252.745L325.556 252.745Q325.064 252.745 324.619 252.945Q324.173 253.144 323.834 253.472Q323.494 253.8 323.306 254.257Q323.119 254.714 323.119 255.206Q323.119 255.698 323.306 256.144Q323.494 256.589 323.834 256.929Q324.173 257.269 324.619 257.456Q325.064 257.644 325.556 257.644L329.494 257.644Q330.947 257.644 332.236 258.124Q333.525 258.605 334.486 259.472Q335.447 260.339 335.998 261.558Q336.548 262.777 336.548 264.23L336.548 264.323ZM333.923 243.722Q333.923 242.855 333.595 242.093Q333.267 241.331 332.693 240.769Q332.119 240.206 331.357 239.878Q330.595 239.55 329.728 239.55L327.337 239.55Q326.47 239.55 325.709 239.878Q324.947 240.206 324.384 240.769Q323.822 241.331 323.494 242.093Q323.166 242.855 323.166 243.722L323.166 245.855Q323.166 246.722 323.494 247.484Q323.822 248.245 324.384 248.808Q324.947 249.37 325.709 249.698Q326.47 250.027 327.337 250.027L329.728 250.027Q330.595 250.027 331.357 249.698Q332.119 249.37 332.693 248.808Q333.267 248.245 333.595 247.484Q333.923 246.722 333.923 245.855L333.923 243.722ZM333.806 264.089Q333.806 263.222 333.478 262.531Q333.15 261.839 332.587 261.37Q332.025 260.902 331.263 260.644Q330.502 260.386 329.634 260.386L328.158 260.386Q327.291 260.386 326.529 260.644Q325.767 260.902 325.205 261.37Q324.642 261.839 324.314 262.531Q323.986 263.222 323.986 264.089L323.986 264.464Q323.986 265.331 324.314 266.011Q324.642 266.691 325.205 267.171Q325.767 267.652 326.529 267.909Q327.291 268.167 328.158 268.167L329.634 268.167Q330.502 268.167 331.263 267.909Q332.025 267.652 332.587 267.171Q333.15 266.691 333.478 266.011Q333.806 265.331 333.806 264.464L333.806 264.089ZM342.806 231.534L342.806 227.691L346.158 227.691L346.158 231.534L342.806 231.534ZM343.041 261.3L343.041 237.3L345.923 237.3L345.923 261.3L343.041 261.3ZM368.916 264.323Q368.916 265.777 368.365 266.995Q367.814 268.214 366.853 269.081Q365.892 269.948 364.603 270.429Q363.314 270.909 361.861 270.909L360.666 270.909Q359.212 270.909 357.923 270.429Q356.634 269.948 355.673 269.081Q354.712 268.214 354.162 266.995Q353.611 265.777 353.611 264.323L353.611 264.23Q353.611 262.823 354.127 261.652Q354.642 260.48 355.533 259.612Q354.408 258.933 353.74 257.773Q353.072 256.612 353.072 255.206Q353.072 253.941 353.611 252.851Q354.15 251.761 355.087 251.081Q353.962 250.097 353.306 248.714Q352.65 247.331 352.65 245.691L352.65 243.886Q352.65 242.433 353.201 241.144Q353.752 239.855 354.712 238.894Q355.673 237.933 356.962 237.382Q358.252 236.831 359.705 236.831L360.9 236.831Q362.658 236.831 364.146 237.616Q365.634 238.402 366.619 239.738L368.189 237.3L369.15 237.3L369.15 245.691Q369.15 247.144 368.599 248.433Q368.048 249.722 367.087 250.683Q366.127 251.644 364.837 252.195Q363.548 252.745 362.095 252.745L357.923 252.745Q357.431 252.745 356.986 252.945Q356.541 253.144 356.201 253.472Q355.861 253.8 355.673 254.257Q355.486 254.714 355.486 255.206Q355.486 255.698 355.673 256.144Q355.861 256.589 356.201 256.929Q356.541 257.269 356.986 257.456Q357.431 257.644 357.923 257.644L361.861 257.644Q363.314 257.644 364.603 258.124Q365.892 258.605 366.853 259.472Q367.814 260.339 368.365 261.558Q368.916 262.777 368.916 264.23L368.916 264.323ZM366.291 243.722Q366.291 242.855 365.962 242.093Q365.634 241.331 365.06 240.769Q364.486 240.206 363.724 239.878Q362.962 239.55 362.095 239.55L359.705 239.55Q358.837 239.55 358.076 239.878Q357.314 240.206 356.752 240.769Q356.189 241.331 355.861 242.093Q355.533 242.855 355.533 243.722L355.533 245.855Q355.533 246.722 355.861 247.484Q356.189 248.245 356.752 248.808Q357.314 249.37 358.076 249.698Q358.837 250.027 359.705 250.027L362.095 250.027Q362.962 250.027 363.724 249.698Q364.486 249.37 365.06 248.808Q365.634 248.245 365.962 247.484Q366.291 246.722 366.291 245.855L366.291 243.722ZM366.173 264.089Q366.173 263.222 365.845 262.531Q365.517 261.839 364.955 261.37Q364.392 260.902 363.63 260.644Q362.869 260.386 362.002 260.386L360.525 260.386Q359.658 260.386 358.896 260.644Q358.134 260.902 357.572 261.37Q357.009 261.839 356.681 262.531Q356.353 263.222 356.353 264.089L356.353 264.464Q356.353 265.331 356.681 266.011Q357.009 266.691 357.572 267.171Q358.134 267.652 358.896 267.909Q359.658 268.167 360.525 268.167L362.002 268.167Q362.869 268.167 363.63 267.909Q364.392 267.652 364.955 267.171Q365.517 266.691 365.845 266.011Q366.173 265.331 366.173 264.464L366.173 264.089ZM390.947 255.206Q390.947 256.659 390.361 257.866Q389.775 259.073 388.767 259.941Q387.759 260.808 386.435 261.288Q385.111 261.769 383.658 261.769L381.736 261.769Q380.283 261.769 378.959 261.218Q377.634 260.667 376.638 259.706Q375.642 258.745 375.044 257.456Q374.447 256.167 374.447 254.714L374.447 253.753L377.33 253.284L377.33 254.878Q377.33 255.745 377.693 256.507Q378.056 257.269 378.666 257.831Q379.275 258.394 380.072 258.722Q380.869 259.05 381.736 259.05L383.658 259.05Q384.525 259.05 385.322 258.792Q386.119 258.534 386.74 258.054Q387.361 257.573 387.724 256.894Q388.087 256.214 388.087 255.347Q388.087 254.058 387.525 253.238Q386.962 252.417 386.037 251.866Q385.111 251.316 383.927 250.952Q382.744 250.589 381.502 250.226Q380.259 249.863 379.076 249.394Q377.892 248.925 376.966 248.163Q376.041 247.402 375.478 246.253Q374.916 245.105 374.916 243.394Q374.916 241.941 375.478 240.734Q376.041 239.527 377.002 238.659Q377.962 237.792 379.24 237.312Q380.517 236.831 381.97 236.831L383.658 236.831Q385.111 236.831 386.4 237.382Q387.689 237.933 388.65 238.894Q389.611 239.855 390.162 241.144Q390.712 242.433 390.712 243.886L390.712 243.98L387.83 244.448L387.83 243.722Q387.83 242.855 387.502 242.093Q387.173 241.331 386.611 240.769Q386.048 240.206 385.287 239.878Q384.525 239.55 383.658 239.55L381.97 239.55Q381.103 239.55 380.341 239.808Q379.58 240.066 379.017 240.546Q378.455 241.027 378.127 241.706Q377.798 242.386 377.798 243.253Q377.798 244.495 378.361 245.281Q378.923 246.066 379.849 246.605Q380.775 247.144 381.959 247.507Q383.142 247.87 384.373 248.257Q385.603 248.644 386.787 249.136Q387.97 249.628 388.896 250.402Q389.822 251.175 390.384 252.335Q390.947 253.495 390.947 255.206Z"/></svg>